<?xml version="1.0" encoding="UTF-8" standalone="no"?><!DOCTYPE svg PUBLIC "-//W3C//DTD SVG 1.1//EN" "http://www.w3.org/Graphics/SVG/1.1/DTD/svg11.dtd"><svg width="100%" height="100%" viewBox="0 0 37 50" version="1.1" xmlns="http://www.w3.org/2000/svg" xmlns:xlink="http://www.w3.org/1999/xlink" xml:space="preserve" xmlns:serif="http://www.serif.com/" style="fill-rule:evenodd;clip-rule:evenodd;stroke-linejoin:round;stroke-miterlimit:1.41421;"><g><path d="M23.422,0.708l11.786,6.176l0.433,0.716l0,38.496l0,0.018l-0.002,0.079l-0.002,0.037l-0.006,0.089l-0.004,0.038l-0.011,0.087l-0.005,0.035l-0.015,0.086l-0.007,0.036l-0.02,0.086l-0.009,0.037l-0.023,0.083l-0.01,0.033l-0.027,0.082l-0.014,0.038l-0.031,0.081l-0.014,0.032l-0.034,0.079l-0.016,0.033l-0.039,0.078l-0.018,0.033l-0.043,0.077l-0.02,0.033l-0.047,0.073l-0.019,0.03l-0.05,0.071l-0.022,0.029l-0.054,0.069l-0.022,0.028l-0.058,0.067l-0.027,0.029l-0.061,0.065l-0.024,0.024l-0.064,0.061l-0.03,0.027l-0.066,0.057l-0.027,0.022l-0.069,0.054l-0.033,0.024l-0.072,0.05l-0.027,0.019l-0.073,0.046l-0.033,0.02l-0.077,0.043l-0.033,0.018l-0.079,0.039l-0.033,0.016l-0.079,0.035l-0.031,0.013l-0.081,0.031l-0.035,0.013l-0.083,0.027l-0.036,0.011l-0.084,0.023l-0.036,0.009l-0.085,0.02l-0.036,0.007l-0.086,0.015l-0.036,0.005l-0.087,0.011l-0.037,0.004l-0.088,0.006l-0.038,0.002l-0.079,0.002l-0.018,0l-29.969,0l-0.019,0l-0.079,-0.002l-0.037,-0.002l-0.088,-0.006l-0.037,-0.004l-0.088,-0.011l-0.036,-0.005l-0.085,-0.015l-0.036,-0.007l-0.085,-0.019l-0.036,-0.009l-0.085,-0.024l-0.035,-0.011l-0.083,-0.027l-0.036,-0.013l-0.081,-0.031l-0.031,-0.014l-0.079,-0.034l-0.033,-0.016l-0.078,-0.039l-0.033,-0.018l-0.077,-0.043l-0.031,-0.019l-0.074,-0.047l-0.03,-0.019l-0.071,-0.051l-0.031,-0.022l-0.07,-0.054l-0.028,-0.024l-0.066,-0.057l-0.028,-0.025l-0.064,-0.061l-0.027,-0.027l-0.061,-0.064l-0.024,-0.027l-0.058,-0.066l-0.023,-0.029l-0.054,-0.07l-0.022,-0.029l-0.051,-0.072l-0.02,-0.031l-0.047,-0.074l-0.019,-0.031l-0.042,-0.075l-0.017,-0.032l-0.039,-0.078l-0.017,-0.034l-0.035,-0.081l-0.014,-0.033l-0.031,-0.081l-0.012,-0.034l-0.028,-0.083l-0.011,-0.035l-0.023,-0.084l-0.008,-0.033l-0.019,-0.085l-0.008,-0.038l-0.015,-0.088l-0.006,-0.038l-0.011,-0.087l-0.003,-0.035l-0.007,-0.088l-0.001,-0.037l-0.002,-0.079l-0.001,-0.018l0,-42.949l0.001,-0.017l0.002,-0.083l0.002,-0.04l0.007,-0.09l0.003,-0.035l0.011,-0.089l0.006,-0.04l0.016,-0.088l0.007,-0.036l0.021,-0.087l0.009,-0.039l0.025,-0.084l0.01,-0.032l0.028,-0.083l0.013,-0.037l0.032,-0.081l0.014,-0.033l0.036,-0.079l0.016,-0.034l0.04,-0.077l0.017,-0.032l0.043,-0.075l0.019,-0.031l0.047,-0.073l0.02,-0.03l0.049,-0.069l0.021,-0.028l0.053,-0.068l0.024,-0.029l0.056,-0.064l0.022,-0.024l0.059,-0.062l0.028,-0.028l0.062,-0.059l0.024,-0.022l0.064,-0.056l0.029,-0.024l0.068,-0.053l0.028,-0.021l0.069,-0.049l0.03,-0.02l0.073,-0.047l0.031,-0.019l0.075,-0.043l0.03,-0.017l0.078,-0.039l0.034,-0.017l0.08,-0.036l0.034,-0.014l0.081,-0.032l0.036,-0.014l0.083,-0.027l0.032,-0.01l0.084,-0.025l0.039,-0.009l0.087,-0.021l0.036,-0.007l0.088,-0.016l0.04,-0.006l0.089,-0.011l0.035,-0.003l0.09,-0.007l0.04,-0.002l0.083,-0.002l0.017,-0.001l19.922,0l0.353,0.087Zm9.219,44.913l0,-36.695l-10.123,-5.305l-18.897,0l0,42l29.02,0Z" style="fill:#fff;"/><path d="M34.193,6.352l0.008,0.004l1.526,0.8l-0.211,2.024l-9.75,2.748l-1.046,-0.532l-3.521,-9.518l1.53,-1.362l11.464,5.836Zm-7.343,2.154l3.192,-0.9l-4.343,-2.211l1.151,3.111Z" style="fill:#fff;"/><g><path d="M14.155,26.84c0.37,0 0.656,-0.101 0.859,-0.301c0.203,-0.201 0.302,-0.48 0.297,-0.84l2.469,0c0,0.927 -0.332,1.688 -0.996,2.281c-0.664,0.594 -1.52,0.891 -2.567,0.891c-1.229,0 -2.198,-0.385 -2.906,-1.156c-0.708,-0.771 -1.062,-1.839 -1.062,-3.203l0,-0.11c0,-0.854 0.157,-1.608 0.472,-2.261c0.315,-0.654 0.77,-1.157 1.363,-1.508c0.594,-0.352 1.297,-0.528 2.11,-0.528c1.099,0 1.971,0.305 2.617,0.914c0.646,0.61 0.969,1.435 0.969,2.477l-2.469,0c0,-0.437 -0.107,-0.773 -0.32,-1.008c-0.214,-0.234 -0.5,-0.351 -0.86,-0.351c-0.682,0 -1.08,0.435 -1.195,1.304c-0.036,0.276 -0.055,0.657 -0.055,1.141c0,0.849 0.102,1.437 0.305,1.766c0.203,0.328 0.526,0.492 0.969,0.492Z" style="fill:#fff;fill-rule:nonzero;"/><path d="M22.264,25.582l1.336,-5.32l2.774,0l-2.758,8.453l-2.688,0l-2.758,-8.453l2.782,0l1.312,5.32Z" style="fill:#fff;fill-rule:nonzero;"/></g></g></svg>