<?xml version="1.0" encoding="UTF-8" standalone="no"?><!DOCTYPE svg PUBLIC "-//W3C//DTD SVG 1.1//EN" "http://www.w3.org/Graphics/SVG/1.1/DTD/svg11.dtd"><svg width="100%" height="100%" viewBox="0 0 322 322" version="1.1" xmlns="http://www.w3.org/2000/svg" xmlns:xlink="http://www.w3.org/1999/xlink" xml:space="preserve" xmlns:serif="http://www.serif.com/" style="fill-rule:evenodd;clip-rule:evenodd;stroke-linecap:round;stroke-linejoin:round;stroke-miterlimit:1.5;"><circle cx="161" cy="161" r="160.5" style="fill:#52b2ff;"/><clipPath id="_clip1"><circle cx="161" cy="161" r="160.5"/></clipPath><g clip-path="url(#_clip1)"><g><path d="M406.5,115c0,-35.874 -29.126,-65 -65,-65l-94,0c-35.874,0 -65,29.126 -65,65c0,35.874 29.126,65 65,65l94,0c35.874,0 65,-29.126 65,-65Z" style="fill:#35e834;"/><path d="M229.5,156.5c0,-17.937 -14.563,-32.5 -32.5,-32.5l-47,0c-17.937,0 -32.5,14.563 -32.5,32.5c0,17.937 14.563,32.5 32.5,32.5l47,0c17.937,0 32.5,-14.563 32.5,-32.5Z" style="fill:#35e834;"/><path d="M285.5,193.5c0,-17.937 -14.563,-32.5 -32.5,-32.5l-47,0c-17.937,0 -32.5,14.563 -32.5,32.5c0,17.937 14.563,32.5 32.5,32.5l47,0c17.937,0 32.5,-14.563 32.5,-32.5Z" style="fill:#35e834;"/><path d="M217,189c0,-17.937 -14.563,-32.5 -32.5,-32.5l-47,0c-17.937,0 -32.5,14.563 -32.5,32.5c0,17.937 14.563,32.5 32.5,32.5l47,0c17.937,0 32.5,-14.563 32.5,-32.5Z" style="fill:#35e834;"/><path d="M182.675,268.5c17.937,-0.056 32.454,-14.664 32.398,-32.602l-0.146,-46.999c-0.056,-17.938 -14.665,-32.455 -32.602,-32.399c-17.937,0.056 -32.454,14.664 -32.398,32.601l0.146,47c0.056,17.937 14.665,32.455 32.602,32.399Z" style="fill:#35e834;"/><path d="M193.748,301c17.937,-0.056 32.454,-14.664 32.398,-32.602l-0.146,-46.999c-0.056,-17.938 -14.664,-32.455 -32.601,-32.399c-17.938,0.056 -32.455,14.664 -32.399,32.601l0.147,47c0.056,17.937 14.664,32.455 32.601,32.399Z" style="fill:#35e834;"/><path d="M215.248,273c17.937,-0.056 32.454,-14.664 32.398,-32.602l-0.146,-46.999c-0.056,-17.938 -14.664,-32.455 -32.601,-32.399c-17.938,0.056 -32.455,14.664 -32.399,32.601l0.147,47c0.056,17.937 14.664,32.455 32.601,32.399Z" style="fill:#35e834;"/><path d="M280.395,366.83c17.937,-0.056 32.454,-14.664 32.398,-32.601l-0.147,-47c-0.055,-17.937 -14.664,-32.455 -32.601,-32.399c-17.937,0.056 -32.454,14.664 -32.398,32.602l0.146,46.999c0.056,17.938 14.664,32.455 32.602,32.399Z" style="fill:#35e834;"/><path d="M30.205,146.906c22.302,-0.063 40.347,-18.221 40.271,-40.523l-0.158,-46.256c-0.077,-22.302 -18.245,-40.357 -40.547,-40.294c-22.302,0.064 -40.347,18.222 -40.271,40.524l0.158,46.256c0.077,22.302 18.245,40.357 40.547,40.293Z" style="fill:#35e834;"/><path d="M117.606,81.035c10.894,-0.031 19.708,-8.9 19.671,-19.794l-0.077,-22.594c-0.038,-10.894 -8.912,-19.713 -19.806,-19.682c-10.894,0.031 -19.708,8.9 -19.671,19.794l0.077,22.594c0.038,10.894 8.912,19.713 19.806,19.682Z" style="fill:#35e834;"/><path d="M182.5,147.366c-0.004,7.525 6.102,13.634 13.627,13.634l72.355,0c7.525,0 13.638,-6.109 13.642,-13.634c0.004,-7.525 -6.101,-13.635 -13.626,-13.635l-72.356,0c-7.525,0 -13.638,6.11 -13.642,13.635Z" style="fill:#a4e8e7;"/><path d="M149.927,161c-0.005,7.525 6.101,13.634 13.626,13.634l72.356,0c7.525,0 13.638,-6.109 13.642,-13.634c0.004,-7.525 -6.102,-13.634 -13.627,-13.634l-72.355,0c-7.525,0 -13.638,6.109 -13.642,13.634Z" style="fill:#a4e8e7;"/><path d="M213.169,161c-0.004,7.525 6.102,13.634 13.627,13.634l72.355,0c7.525,0 13.638,-6.109 13.642,-13.634c0.005,-7.525 -6.101,-13.634 -13.626,-13.634l-72.356,0c-7.525,0 -13.638,6.109 -13.642,13.634Z" style="fill:#a4e8e7;"/><path d="M116.883,93.096c6.51,-0.019 11.778,-5.32 11.756,-11.83l-0.046,-13.503c-0.023,-6.511 -5.326,-11.781 -11.837,-11.763c-6.511,0.019 -11.778,5.319 -11.756,11.83l0.046,13.503c0.022,6.511 5.326,11.781 11.837,11.763Z" style="fill:#2fe830;"/><path d="M247.71,37.512c6.511,-0.018 11.778,-5.319 11.756,-11.829l-0.046,-13.504c-0.022,-6.51 -5.326,-11.781 -11.837,-11.762c-6.51,0.018 -11.778,5.319 -11.756,11.83l0.046,13.503c0.023,6.51 5.326,11.781 11.837,11.762Z" style="fill:#35e834;"/><path d="M49.586,254.83c20.117,-0.057 36.393,-16.436 36.324,-36.552l-0.012,-3.623c-0.069,-20.117 -16.457,-36.403 -36.574,-36.345c-20.116,0.057 -36.393,16.436 -36.324,36.552l0.013,3.623c0.068,20.117 16.456,36.402 36.573,36.345Z" style="fill:#35e834;"/><path d="M51.606,301.071c13.739,-0.039 24.856,-11.226 24.809,-24.965l-0.133,-38.778c-0.047,-13.739 -11.239,-24.862 -24.979,-24.823c-13.739,0.039 -24.856,11.225 -24.809,24.965l0.133,38.777c0.047,13.74 11.239,24.863 24.979,24.824Z" style="fill:#35e834;"/><path d="M24.082,157.106c12.498,-0.035 22.611,-10.211 22.568,-22.71l-0.088,-25.923c-0.043,-12.499 -10.225,-22.618 -22.724,-22.582c-12.499,0.036 -22.611,10.212 -22.569,22.711l0.089,25.923c0.043,12.498 10.225,22.617 22.724,22.581Z" style="fill:#35e834;"/><path d="M39.153,157.106c12.499,-0.035 22.611,-10.211 22.569,-22.71l-0.089,-25.923c-0.043,-12.499 -10.225,-22.618 -22.723,-22.582c-12.499,0.036 -22.612,10.212 -22.569,22.711l0.089,25.923c0.042,12.498 10.224,22.617 22.723,22.581Z" style="fill:#35e834;"/><path d="M31.533,186.011c8.385,-0.024 15.169,-6.851 15.14,-15.235l-0.108,-31.546c-0.028,-8.385 -6.859,-15.173 -15.244,-15.149c-8.385,0.024 -15.169,6.85 -15.14,15.235l0.108,31.546c0.029,8.385 6.859,15.173 15.244,15.149Z" style="fill:#35e834;"/><path d="M49.455,245.857c-0.002,4.091 3.317,7.412 7.408,7.412l97.79,0c4.091,0 7.414,-3.321 7.417,-7.412c0.002,-4.091 -3.317,-7.412 -7.408,-7.412l-97.79,0c-4.091,0 -7.414,3.321 -7.417,7.412Z" style="fill:#a4e8e7;"/><path d="M54.748,225.742c-0.002,4.091 3.317,7.412 7.408,7.412l119.927,0c4.091,0 7.414,-3.321 7.417,-7.412c0.003,-4.091 -3.317,-7.412 -7.407,-7.412l-119.928,0c-4.091,0 -7.414,3.321 -7.417,7.412Z" style="fill:#a4e8e7;"/><path d="M102.752,235.998c-0.003,4.091 3.316,7.412 7.407,7.412l38.536,0c4.09,0 7.414,-3.321 7.416,-7.412c0.003,-4.091 -3.316,-7.412 -7.407,-7.412l-38.535,0c-4.091,0 -7.415,3.321 -7.417,7.412Z" style="fill:#a4e8e7;"/><path d="M52.5,68.897c-0.004,6.249 5.067,11.322 11.316,11.322l62.62,0c6.249,0 11.325,-5.073 11.329,-11.322c0.004,-6.249 -5.067,-11.323 -11.316,-11.323l-62.62,0c-6.249,0 -11.325,5.074 -11.329,11.323Z" style="fill:#a4e8e7;"/><path d="M69.641,83.347c-0.004,6.249 5.067,11.323 11.316,11.323l85.345,0c6.249,0 11.325,-5.074 11.329,-11.323c0.004,-6.249 -5.067,-11.322 -11.316,-11.322l-85.345,0c-6.249,0 -11.325,5.073 -11.329,11.322Z" style="fill:#a4e8e7;"/></g></g><circle cx="161" cy="161" r="160.5" style="fill:none;stroke:#9e9e9e;stroke-width:1px;"/></svg>