<?xml version="1.0" encoding="UTF-8" standalone="no"?><!DOCTYPE svg PUBLIC "-//W3C//DTD SVG 1.1//EN" "http://www.w3.org/Graphics/SVG/1.1/DTD/svg11.dtd"><svg width="100%" height="100%" viewBox="0 0 47 45" version="1.1" xmlns="http://www.w3.org/2000/svg" xmlns:xlink="http://www.w3.org/1999/xlink" xml:space="preserve" xmlns:serif="http://www.serif.com/" style="fill-rule:evenodd;clip-rule:evenodd;stroke-linejoin:round;stroke-miterlimit:1.41421;"><path d="M23.067,0c-12.739,0 -23.067,10.328 -23.067,23.07c0,10.193 6.609,18.839 15.777,21.891c1.154,0.211 1.574,-0.502 1.574,-1.114c0,-0.546 -0.019,-1.998 -0.031,-3.923c-6.417,1.394 -7.77,-3.093 -7.77,-3.093c-1.05,-2.665 -2.562,-3.374 -2.562,-3.374c-2.095,-1.431 0.158,-1.402 0.158,-1.402c2.316,0.162 3.534,2.377 3.534,2.377c2.057,3.525 5.4,2.507 6.714,1.917c0.21,-1.49 0.804,-2.507 1.464,-3.084c-5.122,-0.582 -10.508,-2.561 -10.508,-11.401c0,-2.519 0.899,-4.578 2.375,-6.191c-0.238,-0.583 -1.03,-2.928 0.225,-6.105c0,0 1.938,-0.62 6.345,2.365c1.839,-0.513 3.814,-0.768 5.775,-0.776c1.959,0.008 3.933,0.263 5.775,0.776c4.405,-2.985 6.338,-2.365 6.338,-2.365c1.259,3.177 0.467,5.522 0.229,6.105c1.479,1.613 2.373,3.672 2.373,6.191c0,8.862 -5.395,10.812 -10.534,11.383c0.828,0.712 1.566,2.12 1.566,4.273c0,3.083 -0.028,5.571 -0.028,6.327c0,0.618 0.415,1.336 1.586,1.111c9.16,-3.058 15.764,-11.698 15.764,-21.888c0,-12.742 -10.33,-23.07 -23.072,-23.07" style="fill:#fff;"/></svg>