<?xml version="1.0" encoding="UTF-8" standalone="no"?><!DOCTYPE svg PUBLIC "-//W3C//DTD SVG 1.1//EN" "http://www.w3.org/Graphics/SVG/1.1/DTD/svg11.dtd"><svg width="100%" height="100%" viewBox="0 0 321 321" version="1.1" xmlns="http://www.w3.org/2000/svg" xmlns:xlink="http://www.w3.org/1999/xlink" xml:space="preserve" xmlns:serif="http://www.serif.com/" style="fill-rule:evenodd;clip-rule:evenodd;stroke-linejoin:round;stroke-miterlimit:1.41421;"><circle cx="160.5" cy="160.5" r="160.5" style="fill:#9b8e85;"/><clipPath id="_clip1"><circle cx="160.5" cy="160.5" r="160.5"/></clipPath><g clip-path="url(#_clip1)"><g><path d="M371.739,62.75c-0.093,-2.07 -1.849,-3.75 -3.918,-3.75l-425.153,0c-2.07,0 -3.675,1.68 -3.582,3.75c0.093,2.07 1.848,3.75 3.918,3.75l425.153,0c2.069,0 3.675,-1.68 3.582,-3.75Z" style="fill:#7d7874;"/><path d="M371.527,85.5c-0.26,-5.795 -5.176,-10.5 -10.971,-10.5l-411.653,0c-5.795,0 -10.289,4.705 -10.029,10.5c0.259,5.795 5.175,10.5 10.97,10.5l411.653,0c5.795,0 10.289,-4.705 10.03,-10.5Z" style="fill:#7d7874;"/><path d="M376.699,179.802c-0.2,-4.446 -3.971,-8.056 -8.418,-8.056l-416.54,0c-4.447,0 -7.895,3.61 -7.695,8.056c0.199,4.447 3.97,8.057 8.417,8.057l416.54,0c4.447,0 7.895,-3.61 7.696,-8.057Z" style="fill:#7d7874;"/><path d="M386.632,288.253c-0.534,-11.915 -10.64,-21.588 -22.554,-21.588l-389.479,0c-11.914,0 -21.154,9.673 -20.62,21.588c0.534,11.914 10.64,21.587 22.555,21.587l389.478,0c11.914,0 21.154,-9.673 20.62,-21.587Z" style="fill:#7d7874;"/><path d="M383.106,21.99c-0.134,-0.922 -0.991,-1.67 -1.912,-1.67l-429.313,0c-0.922,0 -1.562,0.748 -1.428,1.67c0.133,0.922 0.99,1.67 1.911,1.67l429.313,0c0.922,0 1.562,-0.748 1.429,-1.67Z" style="fill:#bab1ab;"/><path d="M385.669,15.41c-0.085,-1.882 -1.681,-3.41 -3.563,-3.41l-425.833,0c-1.882,0 -3.342,1.528 -3.257,3.41c0.084,1.882 1.68,3.41 3.562,3.41l425.833,0c1.882,0 3.342,-1.528 3.258,-3.41Z" style="fill:#bab1ab;"/><path d="M376.348,198.529c-0.263,-5.889 -5.259,-10.67 -11.148,-10.67l-411.313,0c-5.889,0 -10.455,4.781 -10.192,10.67c0.264,5.889 5.26,10.67 11.149,10.67l411.312,0c5.889,0 10.456,-4.781 10.192,-10.67Z" style="fill:#bab1ab;"/><path d="M383.304,110.953c-0.37,-8.253 -7.37,-14.953 -15.623,-14.953l-402.747,0c-8.253,0 -14.653,6.7 -14.283,14.953c0.37,8.253 7.37,14.953 15.623,14.953l402.747,0c8.253,0 14.653,-6.7 14.283,-14.953Z" style="fill:#bab1ab;"/><path d="M385.667,166.496c-0.13,-2.897 -2.588,-5.25 -5.486,-5.25l-422.153,0c-2.897,0 -5.144,2.353 -5.014,5.25c0.129,2.898 2.587,5.25 5.485,5.25l422.153,0c2.897,0 5.144,-2.352 5.015,-5.25Z" style="fill:#bab1ab;"/><path d="M290.4,129.186c-0.129,-2.881 -2.573,-5.22 -5.454,-5.22l-1.445,0c-2.881,0 -5.115,2.339 -4.986,5.22c0.129,2.881 2.573,5.22 5.454,5.22l1.445,0c2.881,0 5.115,-2.339 4.986,-5.22Z" style="fill:#7d7874;"/><path d="M64.913,215.12c-0.3,-6.689 -5.974,-12.12 -12.662,-12.12l-6.028,0c-6.689,0 -11.876,5.431 -11.577,12.12c0.3,6.689 5.974,12.119 12.663,12.119l6.028,0c6.688,0 11.876,-5.43 11.576,-12.119Z" style="fill:#7d7874;"/></g></g></svg>