<?xml version="1.0" encoding="UTF-8" standalone="no"?><!DOCTYPE svg PUBLIC "-//W3C//DTD SVG 1.1//EN" "http://www.w3.org/Graphics/SVG/1.1/DTD/svg11.dtd"><svg width="100%" height="100%" viewBox="0 0 321 321" version="1.1" xmlns="http://www.w3.org/2000/svg" xmlns:xlink="http://www.w3.org/1999/xlink" xml:space="preserve" xmlns:serif="http://www.serif.com/" style="fill-rule:evenodd;clip-rule:evenodd;stroke-linejoin:round;stroke-miterlimit:1.41421;"><circle cx="160.5" cy="160.5" r="160.5" style="fill:#d8494e;"/><clipPath id="_clip1"><circle cx="160.5" cy="160.5" r="160.5"/></clipPath><g clip-path="url(#_clip1)"><g><path d="M361.142,109.945c0,-2.549 -2.069,-4.618 -4.618,-4.618l-374.048,0c-2.549,0 -4.618,2.069 -4.618,4.618c0,2.549 2.069,4.618 4.618,4.618l374.048,0c2.549,0 4.618,-2.069 4.618,-4.618Z" style="fill:#f8797d;"/><path d="M352.142,316.102c0,-2.548 -2.069,-4.618 -4.618,-4.618l-374.048,0c-2.549,0 -4.618,2.07 -4.618,4.618c0,2.549 2.069,4.618 4.618,4.618l374.048,0c2.549,0 4.618,-2.069 4.618,-4.618Z" style="fill:#f8797d;"/><path d="M101.5,180.478c0,-8.306 -6.743,-15.05 -15.049,-15.05l-130.902,0c-8.306,0 -15.049,6.744 -15.049,15.05c0,8.305 6.743,15.049 15.049,15.049l130.902,0c8.306,0 15.049,-6.744 15.049,-15.049Z" style="fill:#950f13;"/><path d="M57.5,164.709c0,-11.981 -9.728,-21.709 -21.709,-21.709l-69.582,0c-11.981,0 -21.709,9.728 -21.709,21.709c0,11.982 9.728,21.709 21.709,21.709l69.582,0c11.981,0 21.709,-9.727 21.709,-21.709Z" style="fill:#950f13;"/><path d="M317.5,189.356c0,-3.406 -2.765,-6.172 -6.171,-6.172l-351.174,0c-3.406,0 -6.171,2.766 -6.171,6.172c0,3.406 2.765,6.171 6.171,6.171l351.174,0c3.406,0 6.171,-2.765 6.171,-6.171Z" style="fill:#950f13;"/><path d="M90.5,227.029c0,-9.911 -8.047,-17.957 -17.958,-17.957l-118.936,0c-9.911,0 -17.958,8.046 -17.958,17.957c0,9.911 8.047,17.958 17.958,17.958l118.936,0c9.911,0 17.958,-8.047 17.958,-17.958Z" style="fill:#950f13;"/><path d="M70.352,244.987c0,-10.76 -8.736,-19.495 -19.495,-19.495l-126.862,0c-10.76,0 -19.495,8.735 -19.495,19.495c0,10.759 8.735,19.495 19.495,19.495l126.862,0c10.759,0 19.495,-8.736 19.495,-19.495Z" style="fill:#950f13;"/><path d="M276.665,294.995c0,-7.143 -5.799,-12.942 -12.942,-12.942l-216.446,0c-7.143,0 -12.942,5.799 -12.942,12.942c0,7.143 5.799,12.942 12.942,12.942l216.446,0c7.143,0 12.942,-5.799 12.942,-12.942Z" style="fill:#950f13;"/><path d="M398.444,150.913c0,-7.143 -5.8,-12.942 -12.942,-12.942l-216.447,0c-7.143,0 -12.942,5.799 -12.942,12.942c0,7.142 5.799,12.942 12.942,12.942l216.447,0c7.142,0 12.942,-5.8 12.942,-12.942Z" style="fill:#950f13;"/><path d="M235.871,209.072c0,-2.054 -1.668,-3.722 -3.722,-3.722l-47.928,0c-2.053,0 -3.721,1.668 -3.721,3.722c0,2.054 1.668,3.721 3.721,3.721l47.928,0c2.054,0 3.722,-1.667 3.722,-3.721Z" style="fill:#950f13;"/><path d="M221.871,204.073c0,-2.759 -2.24,-4.999 -4.999,-4.999l-17.373,0c-2.759,0 -4.999,2.24 -4.999,4.999c0,2.759 2.24,4.999 4.999,4.999l17.373,0c2.759,0 4.999,-2.24 4.999,-4.999Z" style="fill:#950f13;"/><path d="M281.665,6.83c0,-7.143 -5.799,-12.942 -12.942,-12.942l-216.446,0c-7.143,0 -12.942,5.799 -12.942,12.942c0,7.143 5.799,12.942 12.942,12.942l216.446,0c7.143,0 12.942,-5.799 12.942,-12.942Z" style="fill:#f8797d;"/><path d="M495.665,205.997c0,-14.528 -11.795,-26.323 -26.324,-26.323l-170.297,0c-14.529,0 -26.324,11.795 -26.324,26.323c0,14.529 11.795,26.324 26.324,26.324l170.297,0c14.529,0 26.324,-11.795 26.324,-26.324Z" style="fill:#f8797d;"/><path d="M177.476,265.484c0,-3.774 -3.065,-6.839 -6.84,-6.839l-41.692,0c-3.775,0 -6.839,3.065 -6.839,6.839c0,3.775 3.064,6.84 6.839,6.84l41.692,0c3.775,0 6.84,-3.065 6.84,-6.84Z" style="fill:#f8797d;"/><path d="M191.871,258.645c0,-3.775 -3.065,-6.839 -6.839,-6.839l-41.693,0c-3.774,0 -6.839,3.064 -6.839,6.839c0,3.775 3.065,6.839 6.839,6.839l41.693,0c3.774,0 6.839,-3.064 6.839,-6.839Z" style="fill:#f8797d;"/><path d="M469.445,232.321c0,-14.528 -11.795,-26.324 -26.324,-26.324l-170.297,0c-14.529,0 -26.324,11.796 -26.324,26.324c0,14.529 11.795,26.324 26.324,26.324l170.297,0c14.529,0 26.324,-11.795 26.324,-26.324Z" style="fill:#f8797d;"/><path d="M384.25,26.141c0,-10.658 -8.653,-19.311 -19.311,-19.311l-225.128,0c-10.658,0 -19.311,8.653 -19.311,19.311c0,10.658 8.653,19.311 19.311,19.311l225.128,0c10.658,0 19.311,-8.653 19.311,-19.311Z" style="fill:#f8797d;"/><path d="M433.25,55.025c0,-15.941 -12.942,-28.884 -28.884,-28.884l-205.982,0c-15.942,0 -28.884,12.943 -28.884,28.884c0,15.941 12.942,28.884 28.884,28.884l205.982,0c15.942,0 28.884,-12.943 28.884,-28.884Z" style="fill:#f8797d;"/><path d="M413.54,83.909c0,-8.306 -6.743,-15.049 -15.049,-15.049l-233.651,0c-8.306,0 -15.05,6.743 -15.05,15.049c0,8.306 6.744,15.049 15.05,15.049l233.651,0c8.306,0 15.049,-6.743 15.049,-15.049Z" style="fill:#f8797d;"/></g></g></svg>