<?xml version="1.0" encoding="UTF-8" standalone="no"?><!DOCTYPE svg PUBLIC "-//W3C//DTD SVG 1.1//EN" "http://www.w3.org/Graphics/SVG/1.1/DTD/svg11.dtd"><svg width="100%" height="100%" viewBox="0 0 194 174" version="1.1" xmlns="http://www.w3.org/2000/svg" xmlns:xlink="http://www.w3.org/1999/xlink" xml:space="preserve" xmlns:serif="http://www.serif.com/" style="fill-rule:evenodd;clip-rule:evenodd;stroke-linecap:round;stroke-miterlimit:1;"><path d="M60.771,45.464c-0.539,-2.499 -0.823,-5.093 -0.823,-7.752c0,-20.212 16.409,-36.622 36.622,-36.622c20.212,0 36.622,16.41 36.622,36.622c0,2.659 -0.284,5.253 -0.824,7.752c0.165,0.285 0.331,0.571 0.496,0.859c32.757,18.66 68.114,51.461 57.149,60.056c-3.179,2.491 -24.665,1.876 -24.665,5.948c0,11.02 24.665,60.17 24.665,60.17l-71.011,0c-4.835,-14.433 -18.949,-34.735 -22.432,-34.735c-3.484,0 -16.616,21.519 -22.433,34.735l-71.01,0c0,0 24.664,-49.15 24.664,-60.17c0,-4.217 -21.486,-3.457 -24.664,-5.948c-10.965,-8.595 24.391,-41.396 57.148,-60.056c0.166,-0.288 0.331,-0.574 0.496,-0.859Z" style="fill:#fff;stroke:#fff;stroke-width:1.54px;"/></svg>