<?xml version="1.0" encoding="UTF-8" standalone="no"?><!DOCTYPE svg PUBLIC "-//W3C//DTD SVG 1.1//EN" "http://www.w3.org/Graphics/SVG/1.1/DTD/svg11.dtd"><svg width="100%" height="100%" viewBox="0 0 70 50" version="1.1" xmlns="http://www.w3.org/2000/svg" xmlns:xlink="http://www.w3.org/1999/xlink" xml:space="preserve" xmlns:serif="http://www.serif.com/" style="fill-rule:evenodd;clip-rule:evenodd;stroke-linecap:round;stroke-linejoin:round;stroke-miterlimit:1.5;"><g id="Menu"><path d="M67.5,2.5" style="fill:#fff;fill-opacity:0.701961;stroke:#000;stroke-width:2px;"/><path d="M2.5,2.5l65,0" style="fill:#fff;fill-opacity:0.701961;stroke:#000;stroke-width:2px;"/><path d="M2.5,2.5l65,0" style="fill:#fff;fill-opacity:0.701961;"/><path d="M67.5,1.89l2.5,0.61l-2.5,0.61l-65,1.89l-0.01,0l-1.756,-0.734l-0.734,-1.756l0,-0.02l0.734,-1.756l1.756,-0.734l0.01,0l65,1.89Z" style="fill:#fff;"/><path d="M2.5,25l54.388,0" style="fill:#fff;fill-opacity:0.701961;"/><path d="M56.888,24.657l2.5,0.343l-2.5,0.343l-54.388,2.157l-0.01,0l-1.756,-0.734l-0.734,-1.756l0,-0.02l0.734,-1.756l1.756,-0.734l0.01,0l54.388,2.157Z" style="fill:#fff;"/><path d="M2.5,47.5l65,0" style="fill:#fff;fill-opacity:0.701961;"/><path d="M2.5,45.1l65,1.806l2.4,0.594l-2.4,0.594l-65.01,1.806l-1.685,-0.678l-0.705,-1.712l0,-0.02l0.705,-1.712l1.685,-0.678l0.01,0Z" style="fill:#fff;"/></g></svg>