<?xml version="1.0" encoding="UTF-8" standalone="no"?><!DOCTYPE svg PUBLIC "-//W3C//DTD SVG 1.1//EN" "http://www.w3.org/Graphics/SVG/1.1/DTD/svg11.dtd"><svg width="100%" height="100%" viewBox="0 0 321 321" version="1.1" xmlns="http://www.w3.org/2000/svg" xmlns:xlink="http://www.w3.org/1999/xlink" xml:space="preserve" xmlns:serif="http://www.serif.com/" style="fill-rule:evenodd;clip-rule:evenodd;stroke-linejoin:round;stroke-miterlimit:1.41421;"><circle cx="160.5" cy="160.5" r="160.5" style="fill:#324d9d;"/><clipPath id="_clip1"><circle cx="160.5" cy="160.5" r="160.5"/></clipPath><g clip-path="url(#_clip1)"><path d="M371.739,62.75c-0.093,-2.07 -1.849,-3.75 -3.918,-3.75l-425.153,0c-2.07,0 -3.675,1.68 -3.582,3.75c0.093,2.07 1.848,3.75 3.918,3.75l425.153,0c2.069,0 3.675,-1.68 3.582,-3.75Z" style="fill:#0f2157;"/><path d="M366.702,244.748c-0.068,-1.517 -1.355,-2.748 -2.871,-2.748l-427.158,0c-1.516,0 -2.692,1.231 -2.624,2.748c0.068,1.516 1.354,2.747 2.87,2.747l427.158,0c1.517,0 2.693,-1.231 2.625,-2.747Z" style="fill:#0f2157;"/><path d="M363.656,145.654c-0.068,-1.517 -1.354,-2.748 -2.871,-2.748l-427.158,0c-1.516,0 -2.692,1.231 -2.624,2.748c0.068,1.516 1.354,2.747 2.871,2.747l427.157,0c1.517,0 2.693,-1.231 2.625,-2.747Z" style="fill:#0f2157;"/><path d="M371.527,85.5c-0.26,-5.795 -5.176,-10.5 -10.971,-10.5l-411.653,0c-5.795,0 -10.289,4.705 -10.029,10.5c0.259,5.795 5.175,10.5 10.97,10.5l411.653,0c5.795,0 10.289,-4.705 10.03,-10.5Z" style="fill:#0f2157;"/><path d="M376.699,179.802c-0.2,-4.446 -3.971,-8.056 -8.418,-8.056l-416.54,0c-4.447,0 -7.895,3.61 -7.695,8.056c0.199,4.447 3.97,8.057 8.417,8.057l416.54,0c4.447,0 7.895,-3.61 7.696,-8.057Z" style="fill:#0f2157;"/><path d="M386.632,288.253c-0.534,-11.915 -10.64,-21.588 -22.554,-21.588l-389.479,0c-11.914,0 -21.154,9.673 -20.62,21.588c0.534,11.914 10.64,21.587 22.555,21.587l389.478,0c11.914,0 21.154,-9.673 20.62,-21.587Z" style="fill:#0f2157;"/><path d="M383.106,21.99c-0.134,-0.922 -0.991,-1.67 -1.912,-1.67l-429.313,0c-0.922,0 -1.562,0.748 -1.428,1.67c0.133,0.922 0.99,1.67 1.911,1.67l429.313,0c0.922,0 1.562,-0.748 1.429,-1.67Z" style="fill:#416ae0;"/><path d="M385.669,15.41c-0.085,-1.882 -1.681,-3.41 -3.563,-3.41l-425.833,0c-1.882,0 -3.342,1.528 -3.257,3.41c0.084,1.882 1.68,3.41 3.562,3.41l425.833,0c1.882,0 3.342,-1.528 3.258,-3.41Z" style="fill:#416ae0;"/><path d="M383.118,106.802c-0.267,-5.962 -5.324,-10.802 -11.286,-10.802l-411.048,0c-5.962,0 -10.586,4.84 -10.319,10.802c0.267,5.963 5.325,10.803 11.287,10.803l411.048,0c5.962,0 10.585,-4.84 10.318,-10.803Z" style="fill:#416ae0;"/><path d="M392.796,46.905c-0.138,-3.077 -2.748,-5.575 -5.825,-5.575l-421.502,0c-3.077,0 -5.464,2.498 -5.326,5.575c0.138,3.077 2.748,5.576 5.825,5.576l421.503,0c3.077,0 5.463,-2.499 5.325,-5.576Z" style="fill:#416ae0;"/><path d="M386.537,253.918c-0.159,-3.545 -3.165,-6.423 -6.71,-6.423l-419.808,0c-3.545,0 -6.294,2.878 -6.135,6.423c0.159,3.544 3.166,6.422 6.71,6.422l419.809,0c3.544,0 6.293,-2.878 6.134,-6.422Z" style="fill:#416ae0;"/><path d="M385.667,166.496c-0.13,-2.897 -2.588,-5.25 -5.486,-5.25l-422.153,0c-2.897,0 -5.144,2.353 -5.014,5.25c0.129,2.898 2.587,5.25 5.485,5.25l422.153,0c2.897,0 5.144,-2.352 5.015,-5.25Z" style="fill:#416ae0;"/><path d="M125.89,40.935c-0.129,-2.88 -2.572,-5.219 -5.453,-5.219l-1.446,0c-2.881,0 -5.115,2.339 -4.986,5.219c0.129,2.881 2.573,5.22 5.454,5.22l1.445,0c2.881,0 5.115,-2.339 4.986,-5.22Z" style="fill:#0f2157;"/><path d="M250.545,219.151c-0.337,-7.518 -6.714,-13.622 -14.232,-13.622l-13.287,0c-7.519,0 -13.349,6.104 -13.012,13.622c0.337,7.518 6.714,13.622 14.232,13.622l13.287,0c7.518,0 13.349,-6.104 13.012,-13.622Z" style="fill:#0f2157;"/></g></svg>