<?xml version="1.0" encoding="UTF-8" standalone="no"?><!DOCTYPE svg PUBLIC "-//W3C//DTD SVG 1.1//EN" "http://www.w3.org/Graphics/SVG/1.1/DTD/svg11.dtd"><svg width="100%" height="100%" viewBox="0 0 322 322" version="1.1" xmlns="http://www.w3.org/2000/svg" xmlns:xlink="http://www.w3.org/1999/xlink" xml:space="preserve" xmlns:serif="http://www.serif.com/" style="fill-rule:evenodd;clip-rule:evenodd;stroke-linecap:round;stroke-linejoin:round;stroke-miterlimit:1.5;"><circle cx="161" cy="161" r="160.5" style="fill:#ffe6dc;"/><clipPath id="_clip1"><circle cx="161" cy="161" r="160.5"/></clipPath><g clip-path="url(#_clip1)"><g><path d="M381.392,217c0,-12.418 -10.082,-22.5 -22.5,-22.5l-415.258,0c-12.418,0 -22.5,10.082 -22.5,22.5c0,12.418 10.082,22.5 22.5,22.5l415.258,0c12.418,0 22.5,-10.082 22.5,-22.5Z" style="fill:#7f5d4f;"/><path d="M391.129,257.428c0,-4.455 -3.617,-8.072 -8.072,-8.072l-444.114,0c-4.455,0 -8.072,3.617 -8.072,8.072c0,4.455 3.617,8.072 8.072,8.072l444.114,0c4.455,0 8.072,-3.617 8.072,-8.072Z" style="fill:#7f5d4f;"/><path d="M408.392,294.949c0,-7.07 -5.741,-12.811 -12.811,-12.811l-434.636,0c-7.071,0 -12.811,5.741 -12.811,12.811c0,7.071 5.74,12.811 12.811,12.811l434.636,0c7.07,0 12.811,-5.74 12.811,-12.811Z" style="fill:#7f5d4f;"/></g><path d="M186.649,180.971c-13.224,-52.075 21.821,-80.553 52.587,-78.495c30.766,2.058 57.253,34.652 66.216,81.486c7.6,34.413 -4.075,84.489 -17.116,122.145c-39.527,5.061 -90.932,6.245 -123.062,-8.234c-44.009,-18.355 -70.496,-50.95 -66.217,-81.486c4.279,-30.536 39.324,-59.013 87.592,-35.416Z" style="fill:#ffae8f;"/></g><circle cx="161" cy="161" r="160.5" style="fill:none;stroke:#9e9e9e;stroke-width:1px;"/></svg>