<?xml version="1.0" encoding="UTF-8" standalone="no"?><!DOCTYPE svg PUBLIC "-//W3C//DTD SVG 1.1//EN" "http://www.w3.org/Graphics/SVG/1.1/DTD/svg11.dtd"><svg width="100%" height="100%" viewBox="0 0 458 322" version="1.1" xmlns="http://www.w3.org/2000/svg" xmlns:xlink="http://www.w3.org/1999/xlink" xml:space="preserve" xmlns:serif="http://www.serif.com/" style="fill-rule:evenodd;clip-rule:evenodd;stroke-linejoin:round;stroke-miterlimit:1.41421;"><g><path d="M286.047,10.768c82.655,31.859 123.895,124.83 92.035,207.485c-31.859,82.654 -124.83,123.894 -207.485,92.035c-82.654,-31.859 -123.894,-124.83 -92.035,-207.485c31.859,-82.655 124.83,-123.895 207.485,-92.035Z" style="fill:#ffefdc;"/><clipPath id="_clip1"><path d="M286.047,10.768c82.655,31.859 123.895,124.83 92.035,207.485c-31.859,82.654 -124.83,123.894 -207.485,92.035c-82.654,-31.859 -123.894,-124.83 -92.035,-207.485c31.859,-82.655 124.83,-123.895 207.485,-92.035Z"/></clipPath><g clip-path="url(#_clip1)"><g><path d="M460.582,145.292c0.658,-1.965 -0.376,-4.164 -2.307,-4.908l-396.704,-152.909c-1.931,-0.744 -4.033,0.246 -4.691,2.211c-0.658,1.964 0.376,4.164 2.307,4.908l396.704,152.909c1.932,0.744 4.033,-0.246 4.691,-2.211Z" style="fill:#ffcd8f;"/><path d="M452.202,166.443c1.842,-5.5 -1.052,-11.658 -6.46,-13.743l-384.107,-148.053c-5.407,-2.084 -11.293,0.69 -13.135,6.19c-1.842,5.501 1.053,11.659 6.46,13.743l384.107,148.054c5.408,2.084 11.293,-0.69 13.135,-6.191Z" style="fill:#ffcd8f;"/><path d="M412.861,299.526c1.413,-4.22 -0.808,-8.945 -4.957,-10.544l-388.667,-149.811c-4.149,-1.6 -8.665,0.529 -10.078,4.749c-1.414,4.221 0.807,8.946 4.956,10.545l388.668,149.811c4.149,1.599 8.664,-0.529 10.078,-4.75Z" style="fill:#ffcd8f;"/><path d="M393.544,360.77c3.787,-11.309 -2.164,-23.97 -13.281,-28.255l-363.416,-140.078c-11.117,-4.285 -23.218,1.418 -27.005,12.727c-3.787,11.309 2.164,23.969 13.282,28.255l363.416,140.078c11.117,4.285 23.217,-1.418 27.004,-12.727Z" style="fill:#ccbfb0;"/><path d="M486.017,111.056c0.206,-0.908 -0.324,-1.914 -1.184,-2.246l-400.585,-154.405c-0.86,-0.331 -1.727,0.137 -1.934,1.045c-0.206,0.908 0.324,1.914 1.184,2.246l400.585,154.405c0.86,0.331 1.727,-0.137 1.934,-1.045Z" style="fill:#ccbfb0;"/><path d="M490.775,105.838c0.598,-1.786 -0.342,-3.786 -2.098,-4.463l-397.339,-153.154c-1.756,-0.676 -3.667,0.224 -4.266,2.011c-0.598,1.786 0.342,3.786 2.098,4.463l397.339,153.153c1.756,0.677 3.667,-0.224 4.266,-2.01Z" style="fill:#ccbfb0;"/><path d="M408.384,309.365c0.538,-1.607 -0.307,-3.405 -1.886,-4.014l-397.98,-153.4c-1.579,-0.609 -3.298,0.201 -3.836,1.808c-0.538,1.606 0.308,3.404 1.887,4.013l397.98,153.4c1.579,0.609 3.297,-0.201 3.835,-1.807Z" style="fill:#ccbfb0;"/><path d="M454.206,194.137c2.623,-7.833 -1.499,-16.603 -9.2,-19.571l-375.797,-144.85c-7.701,-2.968 -16.082,0.982 -18.705,8.815c-2.623,7.834 1.499,16.604 9.199,19.572l375.797,144.85c7.701,2.968 16.083,-0.982 18.706,-8.816Z" style="fill:#ccbfb0;"/><path d="M425.357,292.512c0.464,-1.388 -0.266,-2.943 -1.631,-3.469l-398.756,-153.7c-1.365,-0.526 -2.851,0.174 -3.316,1.563c-0.464,1.388 0.266,2.942 1.631,3.469l398.756,153.699c1.365,0.526 2.851,-0.174 3.316,-1.562Z" style="fill:#ccbfb0;"/></g></g><path d="M388.566,173.364c46.806,28.788 73.656,54.45 67.906,68.621c-5.578,13.746 -40.686,13.873 -91.769,2.925c2.385,-3.792 4.619,-7.705 6.671,-11.765c24.859,2.87 41.112,0.586 44.455,-7.652c3.482,-8.581 -7.583,-22.289 -29.074,-38.388c0.797,-4.583 1.388,-9.165 1.811,-13.741Zm-318.223,-46.686c-47.846,-29.182 -75.391,-55.277 -69.573,-69.613c6.032,-14.866 46.607,-13.802 104.551,0.014c-2.801,3.351 -5.472,6.826 -7.98,10.45c-31.264,-5.038 -52.093,-3.423 -55.929,6.029c-3.698,9.113 9.012,24.009 33.138,41.385l0.729,0.524c31.02,22.201 80.449,48.371 138.049,71.744c62.4,25.322 120.209,41.607 158.046,45.934c-2.066,4.038 -4.292,7.961 -6.671,11.765c-42.947,-9.171 -97.221,-26.195 -154.695,-49.517c-53.979,-21.904 -102.062,-45.826 -138.531,-68.025l-1.134,-0.69Z" style="fill:#7f786e;"/><path d="M373.691,228.41c-35.008,-3.591 -93.074,-20.137 -156.415,-45.841c-60.73,-24.643 -112.116,-51.945 -140.635,-73.363l-0.405,-0.304c-17.103,-12.881 -25.815,-23.611 -23.118,-30.257c2.825,-6.962 17.748,-8.414 40.8,-5.135l-0.452,0.669l-3.162,5.217c-11.273,-0.225 -18.411,1.74 -20.197,6.143c-1.689,4.162 1.57,10.095 8.868,17.194l0.245,0.238c20.933,20.289 74.175,50.098 139.302,76.526c69.462,28.187 131.907,44.194 158.602,41.993l0.17,-0.014c7.205,-0.603 11.771,-2.549 13.15,-5.947c1.489,-3.669 -0.867,-8.713 -6.461,-14.723l1.39,-5.645l0.364,-1.881c16.179,12.388 24.315,22.69 21.696,29.143c-2.509,6.182 -14.557,8.019 -33.331,6.028l-0.411,-0.041Z" style="fill:#7f786e;"/></g></svg>