<?xml version="1.0" encoding="UTF-8" standalone="no"?><!DOCTYPE svg PUBLIC "-//W3C//DTD SVG 1.1//EN" "http://www.w3.org/Graphics/SVG/1.1/DTD/svg11.dtd"><svg width="100%" height="100%" viewBox="0 0 188 187" version="1.1" xmlns="http://www.w3.org/2000/svg" xmlns:xlink="http://www.w3.org/1999/xlink" xml:space="preserve" xmlns:serif="http://www.serif.com/" style="fill-rule:evenodd;clip-rule:evenodd;stroke-linecap:round;stroke-miterlimit:1;"><g><g><path d="M25.821,124.894c6.716,4.27 15.52,2.464 19.649,-4.03c4.129,-6.494 2.03,-15.233 -4.686,-19.503c-6.715,-4.27 -15.519,-2.464 -19.649,4.03c-4.129,6.495 -2.029,15.233 4.686,19.503Zm2.633,-4.141c4.352,2.768 10.058,1.597 12.734,-2.611c2.676,-4.209 1.316,-9.873 -3.037,-12.64c-4.352,-2.767 -10.058,-1.597 -12.734,2.612c-2.676,4.209 -1.315,9.872 3.037,12.639Z" style="fill:#fff;stroke:#fff;stroke-width:1.54px;"/><path d="M7.892,153.093c6.715,4.27 15.52,2.464 19.649,-4.03c4.129,-6.494 2.029,-15.233 -4.686,-19.503c-6.716,-4.27 -15.52,-2.464 -19.649,4.03c-4.129,6.494 -2.029,15.233 4.686,19.503Zm2.633,-4.141c4.352,2.767 10.058,1.597 12.734,-2.612c2.676,-4.208 1.315,-9.872 -3.037,-12.639c-4.352,-2.767 -10.058,-1.597 -12.734,2.612c-2.676,4.208 -1.315,9.872 3.037,12.639Z" style="fill:#fff;stroke:#fff;stroke-width:1.54px;"/><path d="M25.757,144.015l0.819,-4.671c-0.005,0.031 18.446,3.332 58.231,7.951c7.452,0.865 16.807,10.765 16.807,10.765l-75.857,-14.045Z" style="fill:#fff;stroke:#fff;stroke-width:1.54px;"/><path d="M39.442,123.649l-3.883,2.723c0.025,-0.017 10.748,15.157 31.609,48.941c3.907,6.327 16.786,10.521 16.786,10.521l-44.512,-62.185Z" style="fill:#fff;stroke:#fff;stroke-width:1.54px;"/></g><path d="M186.683,11.791l-12.35,135.964l-117.811,-10.701l12.35,-135.964l117.811,10.701Zm-11.079,10.781l-97.777,-8.881l-8.881,97.777l97.777,8.881l8.881,-97.777Z" style="fill:#fff;stroke:#fff;stroke-width:1.54px;"/></g></svg>