<?xml version="1.0" encoding="UTF-8" standalone="no"?><!DOCTYPE svg PUBLIC "-//W3C//DTD SVG 1.1//EN" "http://www.w3.org/Graphics/SVG/1.1/DTD/svg11.dtd"><svg width="100%" height="100%" viewBox="0 0 321 321" version="1.1" xmlns="http://www.w3.org/2000/svg" xmlns:xlink="http://www.w3.org/1999/xlink" xml:space="preserve" xmlns:serif="http://www.serif.com/" style="fill-rule:evenodd;clip-rule:evenodd;stroke-linejoin:round;stroke-miterlimit:1.41421;"><circle cx="160.5" cy="160.5" r="160.5" style="fill:#2984bc;"/><clipPath id="_clip1"><circle cx="160.5" cy="160.5" r="160.5"/></clipPath><g clip-path="url(#_clip1)"><g><path d="M233.067,64.939c0,-12.108 -9.831,-21.939 -21.939,-21.939l-206.182,0c-12.108,0 -21.939,9.831 -21.939,21.939c0,12.109 9.831,21.94 21.939,21.94l206.182,0c12.108,0 21.939,-9.831 21.939,-21.94Z" style="fill:#51abe1;"/><path d="M335.567,161.439c0,-20.315 -16.493,-36.808 -36.809,-36.808l-289.382,0c-20.316,0 -36.809,16.493 -36.809,36.808c0,20.316 16.493,36.809 36.809,36.809l289.382,0c20.316,0 36.809,-16.493 36.809,-36.809Z" style="fill:#51abe1;"/><path d="M472.567,254.568c0,-8.329 -6.762,-15.091 -15.092,-15.091l-332.816,0c-8.33,0 -15.092,6.762 -15.092,15.091c0,8.33 6.762,15.092 15.092,15.092l332.816,0c8.33,0 15.092,-6.762 15.092,-15.092Z" style="fill:#51abe1;"/><path d="M164.163,307.031c0,-2.373 -1.926,-4.299 -4.299,-4.299l-337.498,0c-2.373,0 -4.299,1.926 -4.299,4.299c0,2.373 1.926,4.299 4.299,4.299l337.498,0c2.373,0 4.299,-1.926 4.299,-4.299Z" style="fill:#51abe1;"/><path d="M601.163,82.58c0,-2.373 -1.926,-4.299 -4.299,-4.299l-337.498,0c-2.373,0 -4.299,1.926 -4.299,4.299c0,2.372 1.926,4.299 4.299,4.299l337.498,0c2.373,0 4.299,-1.927 4.299,-4.299Z" style="fill:#51abe1;"/></g></g></svg>