<?xml version="1.0" encoding="UTF-8" standalone="no"?><!DOCTYPE svg PUBLIC "-//W3C//DTD SVG 1.1//EN" "http://www.w3.org/Graphics/SVG/1.1/DTD/svg11.dtd"><svg width="100%" height="100%" viewBox="0 0 322 322" version="1.1" xmlns="http://www.w3.org/2000/svg" xmlns:xlink="http://www.w3.org/1999/xlink" xml:space="preserve" xmlns:serif="http://www.serif.com/" style="fill-rule:evenodd;clip-rule:evenodd;stroke-linecap:round;stroke-linejoin:round;stroke-miterlimit:1.5;"><circle cx="161" cy="161" r="160.5" style="fill:#f98221;"/><clipPath id="_clip1"><circle cx="161" cy="161" r="160.5"/></clipPath><g clip-path="url(#_clip1)"><g><path d="M297.822,214.452c0,0 -159.359,0 -219.087,0c-12.289,0 -22.25,9.962 -22.25,22.25c0,0.001 0,0.001 0,0.002c0,12.288 9.961,22.25 22.25,22.25c59.728,0 219.087,0 219.087,0l0,-44.502Z" style="fill:#f79241;"/><path d="M24.5,90.011c0,0 238.089,0 304.17,0c9.295,0 16.83,-7.535 16.83,-16.83c0,0 0,0 0,0c0,-9.295 -7.535,-16.83 -16.83,-16.83c-66.081,0 -304.17,0 -304.17,0l0,33.66Z" style="fill:#f79241;"/><path d="M-14.168,121.766c0,0 301.717,0 350.058,0c1.724,0 3.376,-0.685 4.595,-1.903c1.219,-1.219 1.903,-2.872 1.903,-4.595c0,-0.001 0,-0.001 0,-0.002c0,-1.724 -0.685,-3.377 -1.904,-4.596c-1.219,-1.219 -2.872,-1.904 -4.596,-1.904c-48.347,0 -350.056,0 -350.056,0l0,13Z" style="fill:#f79241;"/><path d="M-11.056,148.635c0,0 301.717,0 350.058,0c1.723,0 3.376,-0.685 4.595,-1.903c1.218,-1.219 1.903,-2.872 1.903,-4.595c0,-0.001 0,-0.001 0,-0.002c0,-1.724 -0.685,-3.377 -1.904,-4.596c-1.219,-1.219 -2.872,-1.904 -4.596,-1.904c-48.347,0 -350.056,0 -350.056,0l0,13Z" style="fill:#f76f02;"/><path d="M-1.5,69.174c0,0 149.232,0 205.164,0c11.507,0 20.836,-9.329 20.836,-20.836c0,-0.001 0,-0.001 0,-0.002c0,-11.507 -9.329,-20.836 -20.836,-20.836c-55.932,0 -205.164,0 -205.164,0l0,41.674Z" style="fill:#f79241;"/><path d="M-18.5,115.266c0,0 149.232,0 205.164,0c11.507,0 20.836,-9.329 20.836,-20.836c0,-0.001 0,-0.001 0,-0.002c0,-11.507 -9.329,-20.836 -20.836,-20.836c-55.932,0 -205.164,0 -205.164,0l0,41.674Z" style="fill:#f59b53;"/><path d="M-18.5,115.266c0,0 149.232,0 205.164,0c11.507,0 20.836,-9.329 20.836,-20.836c0,-0.001 0,-0.001 0,-0.002c0,-11.507 -9.329,-20.836 -20.836,-20.836c-55.932,0 -205.164,0 -205.164,0l0,41.674Z" style="fill:#f79241;"/><path d="M73.616,186.215c0,3.234 2.622,5.856 5.856,5.856c3.182,0 7.106,0 10.288,0c3.234,0 5.856,-2.622 5.856,-5.856c0,-0.001 0,-0.001 0,-0.002c0,-3.234 -2.622,-5.856 -5.856,-5.856c-3.182,0 -7.106,0 -10.288,0c-3.234,0 -5.856,2.622 -5.856,5.856c0,0.001 0,0.001 0,0.002Z" style="fill:#f76f02;"/><path d="M81.616,180.358c0,3.234 2.622,5.856 5.856,5.856c3.182,0 7.106,0 10.288,0c3.234,0 5.856,-2.622 5.856,-5.856c0,-0.001 0,-0.001 0,-0.002c0,-3.234 -2.622,-5.856 -5.856,-5.856c-3.182,0 -7.106,0 -10.288,0c-3.234,0 -5.856,2.622 -5.856,5.856c0,0.001 0,0.001 0,0.002Z" style="fill:#f76f02;"/><path d="M485.766,167.39c0,0 -250.794,0 -342.672,0c-18.345,0 -33.216,14.872 -33.216,33.216c0,0.96 0,1.921 0,2.881c0,18.345 14.871,33.216 33.216,33.216c91.878,0 342.672,0 342.672,0l0,-69.313Z" style="fill:#f79241;"/><path d="M342.388,241.421c0,0 -250.794,0 -342.672,0c-18.345,0 -33.216,14.872 -33.216,33.216c0,0.96 0,1.921 0,2.881c0,18.345 14.871,33.216 33.216,33.216c91.878,0 342.672,0 342.672,0l0,-69.313Z" style="fill:#f79241;"/><path d="M123.5,265.634c0,5.768 4.676,10.444 10.444,10.444c9.92,0 24.753,0 34.673,0c5.768,0 10.444,-4.676 10.444,-10.444c0,-0.001 0,-0.002 0,-0.003c0,-5.768 -4.676,-10.444 -10.444,-10.444c-9.92,0 -24.753,0 -34.673,0c-5.768,0 -10.444,4.676 -10.444,10.444c0,0.001 0,0.002 0,0.003Z" style="fill:#ee9b58;"/><path d="M-0.884,74.398c0,5.768 4.676,10.444 10.444,10.444c9.92,0 24.753,0 34.673,0c5.768,0 10.444,-4.676 10.444,-10.444c0,-0.001 0,-0.002 0,-0.003c0,-5.768 -4.676,-10.444 -10.444,-10.444c-9.92,0 -24.753,0 -34.673,0c-5.768,0 -10.444,4.676 -10.444,10.444c0,0.001 0,0.002 0,0.003Z" style="fill:#ee9b58;"/><path d="M149.818,255.189c0,5.768 4.676,10.444 10.444,10.444c9.92,0 24.753,0 34.673,0c5.768,0 10.444,-4.676 10.444,-10.444c0,-0.001 0,-0.002 0,-0.003c0,-5.768 -4.676,-10.444 -10.444,-10.444c-9.92,0 -24.753,0 -34.673,0c-5.768,0 -10.444,4.676 -10.444,10.444c0,0.001 0,0.002 0,0.003Z" style="fill:#ee9b58;"/><path d="M25.434,63.952c0,5.768 4.676,10.444 10.444,10.444c9.92,0 24.753,0 34.673,0c5.768,0 10.444,-4.676 10.444,-10.444c0,0 0,-0.001 0,-0.002c0,-5.768 -4.676,-10.444 -10.444,-10.444c-9.92,0 -24.753,0 -34.673,0c-5.768,0 -10.444,4.676 -10.444,10.444c0,0.001 0,0.002 0,0.002Z" style="fill:#ee9b58;"/><path d="M164.439,265.634c0,5.768 4.676,10.444 10.444,10.444c9.92,0 24.753,0 34.673,0c5.768,0 10.444,-4.676 10.444,-10.444c0,-0.001 0,-0.002 0,-0.003c0,-5.768 -4.676,-10.444 -10.444,-10.444c-9.92,0 -24.753,0 -34.673,0c-5.768,0 -10.444,4.676 -10.444,10.444c0,0.001 0,0.002 0,0.003Z" style="fill:#ee9b58;"/><path d="M40.056,74.398c0,5.768 4.676,10.444 10.444,10.444c9.92,0 24.752,0 34.672,0c5.768,0 10.444,-4.676 10.444,-10.444c0,-0.001 0,-0.002 0,-0.003c0,-5.768 -4.676,-10.444 -10.444,-10.444c-9.92,0 -24.752,0 -34.672,0c-5.768,0 -10.444,4.676 -10.444,10.444c0,0.001 0,0.002 0,0.003Z" style="fill:#ee9b58;"/><path d="M-295.5,180.137c0,0 287.07,0 354.884,0c3.775,0 7.395,-1.5 10.064,-4.169c2.669,-2.669 4.168,-6.289 4.168,-10.063c0,0 0,-0.001 0,-0.001c0,-3.774 -1.499,-7.394 -4.168,-10.063c-2.669,-2.669 -6.289,-4.169 -10.064,-4.169c-67.814,0 -354.884,0 -354.884,0l0,28.465Z" style="fill:#f76f02;"/><path d="M-277.616,164.1c0,0 287.07,0 354.884,0c3.775,0 7.395,-1.5 10.064,-4.169c2.669,-2.669 4.168,-6.289 4.168,-10.063c0,0 0,-0.001 0,-0.001c0,-3.775 -1.499,-7.395 -4.168,-10.064c-2.669,-2.669 -6.289,-4.168 -10.064,-4.168c-67.814,0 -354.884,0 -354.884,0l0,28.465Z" style="fill:#f76f02;"/></g></g><circle cx="161" cy="161" r="160.5" style="fill:none;stroke:#9e9e9e;stroke-width:1px;"/></svg>